PathFileType	4	(X/Y/Z)	T1_P1_Vision_Movement_4_0-662.trc
DataRate	CameraRate	NumFrames	NumMarkers	Units	OrigDataRate	OrigDataStartFrame	OrigNumFrames
60	60	7	27	m	60	579	662
Frame#	Time	RHip			RKnee			RAnkle			RBigToe			RSmallToe			RHeel			LHip			LKnee			LAnkle			LBigToe			LSmallToe			LHeel			Neck			Head			Nose			RShoulder			RElbow			RWrist			RThumb			RIndex			RPinky			LShoulder			LElbow			LWrist			LThumb			LIndex			LPinky		
		X1	Y1	Z1	X2	Y2	Z2	X3	Y3	Z3	X4	Y4	Z4	X5	Y5	Z5	X6	Y6	Z6	X7	Y7	Z7	X8	Y8	Z8	X9	Y9	Z9	X10	Y10	Z10	X11	Y11	Z11	X12	Y12	Z12	X13	Y13	Z13	X14	Y14	Z14	X15	Y15	Z15	X16	Y16	Z16	X17	Y17	Z17	X18	Y18	Z18	X19	Y19	Z19	X20	Y20	Z20	X21	Y21	Z21	X22	Y22	Z22	X23	Y23	Z23	X24	Y24	Z24	X25	Y25	Z25	X26	Y26	Z26	X27	Y27	Z27
580	9.666666666666666	-124.72373390316771	3924.5012475381145	-646.6415439509607	238.08305204350742	4059.0703968292214	-648.3105934497448	598.8696293785895	4263.444043452018	-684.0820493435447	683.9738060858397	4171.7534075007925	-643.2599233769722	679.8465483086442	4161.299147313461	-700.4666311544423	638.5582836092078	4314.735209128262	-697.9768669727572	-129.6544321788119	4077.1581707903847	-505.5103930237595	210.05710173800256	4165.202462511668	-497.6540765568357	554.7688662557251	4335.72679065743	-515.4620810118904	632.0724804758253	4215.722257109168	-401.49920499117985	609.4497552921621	4278.070285627842	-378.67124422554326	611.3519698736328	4409.134165787813	-545.6451460190502	-710.0820817764189	3806.204852106093	-549.1073266442961	-938.364895253571	3692.6253136283963	-459.8658512172537	-777.9830731851036	3738.1208266894055	-447.73199985473457	-610.4918379047232	3758.945065046942	-695.233561415737	-478.36794028270407	3601.619631989736	-765.7654536656008	-671.0464688406388	3480.847767470149	-638.5823885307595	-795.7195270504495	3552.545850002894	-624.9718076729658	-793.8272673682276	3516.8912700203937	-595.0535756371594	-770.443510454992	3496.4183771949965	-646.0711855387823	-654.2645743253061	3963.9285184646833	-458.9621018217417	-398.1154028362484	4083.585381066464	-407.0197591126196	-139.89599881190307	4103.0672021304135	-367.29018566324464	-12.987705542942692	4117.296845279912	-364.86169933131924	10.9276086233435	4140.221202986339	-352.55045272497296	-8.894672934390636	4156.861135096376	-334.06461413847774
581	9.683333333333334	-119.02036327466409	3924.3879635010303	-646.106347981585	243.56192560472866	4058.8952199654423	-647.7761828760651	598.9486896419171	4263.579919499701	-684.3635117064995	684.119655189168	4171.927779992983	-643.5242899482001	679.8655849199396	4161.086542587696	-700.604181299486	638.3592435012041	4315.067483846942	-698.3816604922757	-129.59330240341419	4077.130551033167	-505.3967899865692	215.0491330304215	4165.376465060576	-497.1772218322927	560.0112886743925	4335.12114840536	-514.5502989107156	641.8380725030551	4246.396687126367	-406.8077616846588	616.5627278971904	4283.738461513082	-380.9552820235926	607.4413295563286	4375.807464653283	-538.7296224001627	-710.1449095146918	3806.1029402836375	-548.9962182807493	-942.9661565469602	3689.05339860413	-458.90426614493333	-778.0019825619819	3737.500557427051	-447.6672299996698	-610.4686332110214	3758.847353454883	-695.2062941447294	-478.2506488190496	3601.5623590917494	-765.7352391959166	-670.9546261959028	3480.557848481857	-638.4116384666589	-795.7832501402718	3552.9650461604324	-625.2631664593183	-796.5139430693617	3531.8253488997893	-608.0616469936592	-766.1845601649053	3497.403509398431	-645.8425931937984	-654.3359594854738	3964.092287401868	-458.99016911646174	-403.5463060779338	4100.9094221416335	-419.884938467045	-145.58503492799463	4099.202100484453	-365.63095060537256	-12.964392524372792	4117.32796208268	-364.9496286358203	10.905165237456059	4140.658293246152	-352.7818085620441	-9.000401323798298	4157.39639171416	-334.45964428448127
582	9.7	-119.28466633631933	3924.3811348759555	-646.1938128611545	237.50968441153393	4054.9737273997644	-645.9240889139123	598.9786701416872	4263.86074311018	-684.4521043358634	684.1040376913404	4172.173156772849	-643.63442263312	679.8074877493093	4161.366536250779	-700.6499828295575	638.6328272266728	4315.248955076286	-698.5191789353247	-130.82274965844746	4073.2466359836176	-503.5523250358363	215.70533722656015	4165.473319861199	-503.1274598529721	554.8734343351739	4335.550262450042	-515.346084827422	632.0961230625228	4215.812125269421	-401.6055314109957	605.2468982186982	4245.895227690957	-372.8332195723343	607.2751759430103	4375.840144787492	-538.7485307020103	-710.1170786763103	3806.0783979871367	-548.9807691262635	-942.9664858861985	3689.2935414577105	-458.93287836768417	-777.9665984095942	3737.7839627782246	-447.7209395747873	-616.1975745062549	3756.4034790348946	-689.1872676524572	-478.4429375667907	3601.9458017624993	-766.0617828457735	-670.9750198671879	3480.719895551805	-638.5366734509381	-798.3579289589884	3567.841527104968	-638.3997585882345	-793.3846760195254	3534.456287224618	-609.4270184051627	-766.2978159954516	3499.003336396491	-647.1243374655224	-654.3242681301601	3963.970400985647	-458.94243966255146	-399.08017892997185	4104.437157367501	-421.2921707806121	-145.52687627870918	4099.303251894014	-365.650276644515	-12.420208817961328	4116.664815807108	-370.1847130113573	10.899642937717715	4140.606557091378	-352.82724865730006	-8.939974401981601	4157.41612413718	-334.33615742597135
583	9.716666666666667	-119.74968726144306	3904.2933635353957	-630.937958779281	243.5241360132127	4058.75301037588	-647.7908022240417	600.5280104996715	4266.4259287988525	-692.1304094472525	683.8941754583412	4171.845224246664	-643.462213489703	679.7861069463243	4161.322428959338	-700.7427928807147	644.8627059244695	4319.267766562783	-698.4481381700916	-130.9348445637839	4073.293444288614	-503.38130080836584	210.1048754130382	4165.343377504772	-497.8093693005582	555.384302160353	4334.671227114415	-520.9688612883474	637.2510750505841	4239.486637783944	-416.98982600648054	609.5760174887728	4278.434136101756	-378.9992367954034	607.453069720275	4375.829255657843	-539.1246117559064	-710.0168948759339	3805.837255379282	-548.9417106150324	-943.0306720906565	3689.05404153874	-458.7574001739198	-777.8574162575837	3737.520261232761	-447.5822992431309	-616.0814411205629	3756.12243161475	-689.0601084165107	-483.9076208996971	3617.2143432524376	-780.9376504486853	-670.9963711157079	3480.9765282990957	-638.6034963505466	-798.1680478793731	3567.7062161753406	-638.49620500474	-793.2515977389978	3534.3988065519065	-609.566170595764	-762.0461961064871	3499.788606800346	-646.8773062280635	-654.2746794004281	3963.745120774174	-458.7948526839872	-403.59721769250626	4100.860139726318	-419.8712853616556	-145.7661304446963	4098.740663137097	-365.5186651883115	-18.745322914902637	4111.704887679907	-368.4966733369563	10.833028717669022	4140.151263040475	-352.76692070377067	-9.286669658669014	4157.492604661502	-334.43514601004784
584	9.733333333333333	-119.09777345706664	3923.901623816542	-646.1542369324002	237.4975687356067	4054.4001118058154	-645.5252494881967	599.0990958703528	4263.784979994754	-684.1430576646023	683.9320556569406	4171.366448860174	-643.3265665121164	679.9512135896414	4161.301815769071	-700.9365228936606	645.4824963915127	4317.864270186394	-697.28476811136	-134.81955387431793	4044.4856438738952	-497.9464222290149	215.74721955781098	4165.421555122102	-502.9607874962773	559.8745185975023	4334.709859372069	-514.1763031506333	637.1713324157773	4214.65995097567	-400.56979628089243	605.5382355910442	4245.732961597068	-372.86301094756624	613.5717187300255	4379.09483029894	-537.9461987251736	-714.6784172333887	3802.6006660163944	-547.759568330868	-942.9378633277908	3689.4347152475398	-458.8996390979661	-778.3880369302389	3736.5357319155264	-446.9266225629554	-615.8797938850411	3756.966287167123	-695.3717136034684	-482.6057791670965	3598.600649159702	-764.4042498743947	-671.0199890311234	3480.8702293531173	-638.6093827327251	-795.4016817006705	3552.7069111608735	-625.3681556200983	-796.1187138020089	3531.564320190491	-608.2576121290512	-766.1684866062247	3497.160312360919	-645.8785906029977	-654.2106104532131	3963.465351881443	-458.8433073158639	-399.0931084589655	4104.506027906662	-421.3985539498897	-139.94547611636094	4102.441143623327	-367.16265965536957	-11.609074682780962	4087.2285281818076	-365.9558217696649	17.091081142259668	4143.3207815833575	-354.6702452812703	-3.2967525743829285	4160.662719184112	-335.6274126632103
585	9.75	-118.99713450537989	3923.9271319360532	-646.110128131636	243.62568556224036	4058.317510151601	-647.5921799250715	600.4769074554495	4266.847111873037	-691.9989791381694	678.0569176851409	4168.382872360283	-643.8797078573102	674.5412957778033	4159.819426867116	-708.997912264029	638.9435000513132	4314.6541479107345	-698.0256927116225	-135.60196200964072	4072.6620496920577	-503.77562996456885	215.96085054608704	4165.362577286502	-502.85042455974036	554.7755120011007	4335.463910759826	-515.2661867663566	637.4272409591204	4215.3039689729285	-400.8560241510243	612.0764417319888	4250.633064577796	-374.97912742428065	617.9507349904375	4412.671687841029	-545.1235089413882	-714.6758298191425	3802.553341368703	-547.7433984684711	-942.9475202985595	3689.340462977237	-458.8912209116634	-783.0360225491224	3735.446471250233	-446.968698348049	-616.0936930157433	3755.9894352385686	-689.0537402616571	-482.60490092998657	3598.7611653962867	-764.5582329890915	-671.0736314366897	3480.9418357463614	-638.7127714061716	-795.3798126867853	3552.0765041332256	-624.7118250314323	-796.2390696083661	3531.1454213343623	-607.729202010059	-765.3032715965896	3516.3141976990573	-660.5225217320591	-654.2160262745979	3963.473354963843	-458.81142272997187	-399.08566216546956	4104.215854490358	-421.2108688343265	-140.04683016893668	4102.161855583578	-366.8269427113335	-12.730322178635658	4086.6690773558153	-364.90368247430524	10.842696104962611	4138.9550318680795	-352.5286008965375	-9.222774217784606	4156.684243005738	-334.1339855229329
586	9.766666666666667	-118.69035847448161	3924.1846110498827	-646.1741455298032	246.24282383506375	4080.3252637530895	-663.5804751381781	600.3391015317964	4266.762743627202	-691.8580552366384	683.221415839018	4200.484254706195	-651.5488772377443	678.9180547917694	4193.3830726273845	-710.9923164513989	638.8728887547321	4314.423633214562	-697.774531704735	-123.8721991027502	4048.916753504083	-499.343594104773	215.23484690057862	4165.139994483508	-497.26129184743303	555.5310857519096	4334.907619644357	-521.0261373780543	637.0384970365278	4214.675029632713	-400.4785112258191	612.1045694842896	4250.6136210046025	-375.0192100530877	607.4980078471804	4375.969904187276	-539.1785094419487	-714.6125460696139	3802.293276000065	-547.6518282273744	-942.9728452493601	3689.216296493442	-458.8363362303294	-778.426810479789	3736.5878005458067	-446.9516176374129	-615.9980017721206	3755.736259248102	-688.9774068729844	-482.7637912845384	3599.0549207188997	-764.6163437423916	-670.963261422018	3480.709797282871	-638.6192064698448	-795.4154396363972	3551.9819093813026	-624.6983477105376	-796.136390044502	3530.8067407728554	-607.6627733800126	-765.110407909961	3516.1220999392267	-660.4712836246135	-654.1471763946661	3963.3239117167413	-458.6982447553838	-398.9667111285174	4104.188353989189	-421.2496052255933	-140.10095210583967	4102.1662720068	-366.80402717159666	-13.304388969071747	4115.503952604773	-364.5141204648285	10.876205744802636	4138.989886446311	-352.45857794150004	-8.466042200141015	4159.401630996692	-340.68016330296865
